<?xml version="1.0" encoding="UTF-8"?><svg xmlns="http://www.w3.org/2000/svg" viewBox="0 0 125 50"><defs><style>.c{fill:#4b4a4a;}</style></defs><g id="a"><g><path class="c" d="M51.01,26.4c.29,.39,.44,.86,.44,1.42,0,.8-.31,1.41-.93,1.84-.62,.43-1.52,.64-2.7,.64h-4.7v-9.1h4.44c1.11,0,1.96,.21,2.55,.64,.59,.42,.89,1,.89,1.73,0,.44-.11,.84-.32,1.18s-.51,.62-.89,.82c.52,.16,.92,.44,1.22,.83Zm-5.8-3.61v2.15h2.09c.52,0,.91-.09,1.18-.27,.27-.18,.4-.45,.4-.81s-.13-.62-.4-.8c-.27-.18-.66-.27-1.18-.27h-2.09Zm3.7,5.66c.28-.18,.42-.46,.42-.85,0-.75-.56-1.13-1.67-1.13h-2.45v2.25h2.45c.55,0,.97-.09,1.25-.27Z"/><path class="c" d="M58.77,30.3l-1.75-2.54h-1.93v2.54h-2.1v-9.1h3.93c.8,0,1.5,.13,2.09,.4,.59,.27,1.05,.65,1.37,1.14,.32,.49,.48,1.08,.48,1.76s-.16,1.26-.49,1.75-.79,.86-1.38,1.12l2.04,2.92h-2.26Zm-.53-6.97c-.33-.27-.81-.41-1.44-.41h-1.71v3.17h1.71c.63,0,1.11-.14,1.44-.42,.33-.28,.49-.67,.49-1.17s-.17-.9-.49-1.18Z"/><path class="c" d="M69.49,28.61v1.69h-7.03v-9.1h6.86v1.69h-4.77v1.98h4.22v1.64h-4.22v2.11h4.94Z"/><path class="c" d="M77.08,28.35h-4.22l-.8,1.95h-2.15l4.05-9.1h2.08l4.06,9.1h-2.21l-.8-1.95Zm-.66-1.6l-1.44-3.48-1.44,3.48h2.88Z"/><path class="c" d="M84.28,26.73l-1.22,1.27v2.3h-2.09v-9.1h2.09v4.25l4.02-4.25h2.33l-3.76,4.06,3.98,5.04h-2.45l-2.91-3.58Z"/><path class="c" d="M92.61,22.89v2.41h4.2v1.69h-4.2v3.31h-2.1v-9.1h6.86v1.69h-4.76Z"/><path class="c" d="M104.33,28.35h-4.22l-.8,1.95h-2.15l4.05-9.1h2.08l4.06,9.1h-2.21l-.8-1.95Zm-.66-1.6l-1.44-3.48-1.44,3.48h2.88Z"/><path class="c" d="M109.13,30.17c-.67-.19-1.21-.45-1.62-.76l.71-1.59c.39,.29,.85,.52,1.39,.69s1.07,.26,1.61,.26c.6,0,1.04-.09,1.32-.27,.29-.18,.43-.41,.43-.71,0-.22-.08-.4-.25-.54-.17-.14-.38-.26-.65-.34-.26-.09-.62-.18-1.07-.29-.69-.16-1.26-.33-1.7-.49-.44-.16-.82-.43-1.13-.79-.32-.36-.47-.85-.47-1.46,0-.53,.14-1.01,.43-1.44,.29-.43,.72-.77,1.29-1.02s1.28-.38,2.11-.38c.58,0,1.15,.07,1.7,.21s1.04,.34,1.45,.6l-.65,1.6c-.84-.48-1.68-.71-2.52-.71-.59,0-1.02,.1-1.3,.29-.28,.19-.42,.44-.42,.75s.16,.54,.49,.7c.32,.15,.82,.3,1.49,.45,.69,.16,1.26,.33,1.7,.49,.44,.17,.82,.42,1.14,.78,.32,.36,.47,.84,.47,1.44,0,.52-.15,.99-.43,1.42-.29,.43-.72,.77-1.3,1.02-.58,.25-1.28,.38-2.11,.38-.72,0-1.41-.1-2.08-.29Z"/><path class="c" d="M118.19,22.92h-2.91v-1.72h7.91v1.72h-2.91v7.38h-2.1v-7.38Z"/></g></g><g id="b"><g><path class="c" d="M13.67,32.97c-.72,0-1.38-.29-1.62-.71l-6.24-11.16c-.99-.34-2.61-1.12-3.05-1.79-.68-1.03-.52-1.86-.27-2.38,.14-.28,.48-.4,.76-.27,.28,.14,.4,.48,.27,.76-.18,.37-.11,.79,.2,1.27,.17,.26,1.32,.94,2.41,1.3,.29,.1,.53,.3,.68,.56l6.24,11.15s.32,.16,.67,.13c.09,0,.17-.01,.26-.03l1.72-.36c.31-.07,.61,.13,.67,.44s-.13,.61-.44,.67l-1.72,.36c-.15,.03-.31,.05-.46,.05-.02,0-.04,0-.07,0Z"/><path class="c" d="M38.47,38.91c-.11,0-.22,0-.33,0l-18.38-.32c-.25,0-.49-.03-.73-.08-1.23-.25-2.2-1.02-2.48-1.97l-3.47-11.83c-1.11-.74-1.81-1.58-2.08-2.49-.19-.66-.15-1.35,.13-1.99l1.02-2.99c.1-.43,.34-.89,.69-1.32,1.7-2.07,6.08-3.24,11.74-3.14,2.12,.04,4.28,.27,6.24,.66,4.77,.97,7.86,2.74,8.48,4.86,.27,.93,.07,1.89-.56,2.73l3.39,11.54c.13,.44,.11,.88-.04,1.29l-1.21,3.48c-.47,1.37-1.39,1.58-2.41,1.58ZM23.95,13.88c-4.88,0-8.86,1.05-10.24,2.74-.24,.29-.4,.6-.48,.92l-1.05,3.09c-.19,.45-.22,.86-.1,1.27,.2,.68,.8,1.35,1.78,1.97,.12,.07,.2,.19,.24,.32l3.53,12.03c.16,.54,.81,1.02,1.62,1.18,.17,.03,.35,.05,.52,.06l18.39,.32c1.13,.03,1.4-.1,1.64-.81h0l1.21-3.5c.07-.19,.08-.39,.02-.59l-3.47-11.83c-.05-.19,0-.39,.12-.54,.37-.42,.76-1.09,.52-1.91-.48-1.65-3.4-3.21-7.62-4.06-1.89-.38-3.98-.61-6.04-.64-.2,0-.41,0-.61,0Z"/><path class="c" d="M41.63,33.93h0l-20.44-.32c-.16,0-.31-.02-.46-.05-.74-.15-1.35-.59-1.49-1.07l-3.6-12.27c-.89-.56-2.29-1.67-2.57-2.43-.43-1.16-.09-1.93,.26-2.38,.2-.24,.55-.29,.8-.09,.24,.2,.28,.55,.09,.8-.26,.32-.29,.74-.09,1.28,.11,.29,1.08,1.21,2.06,1.8,.26,.16,.45,.41,.54,.7l3.6,12.27s.25,.2,.63,.28c.09,.02,.17,.03,.26,.03l20.44,.32c.31,0,.56,.26,.56,.58,0,.31-.26,.56-.57,.56Z"/><path class="c" d="M26.81,29.31c-.39,0-.81-.19-1.04-.49l-4.11-5.22c-.19-.24-.25-.55-.14-.81l.42-1c.1-.26,.34-.43,.66-.48l6.54-.97c.43-.06,.94,.14,1.2,.48l4.11,5.21c.13,.16,.25,.43,.14,.79l-.02,.06-.4,.97c-.1,.25-.34,.44-.66,.48l-6.54,.97c-.05,0-.11,.01-.16,.01Zm-4.16-6.29l4.01,5.09s.08,.06,.15,.06l6.38-.94,.26-.62-4.01-5.09s-.1-.06-.15-.06l-6.39,.94-.26,.62Zm10.47,4.38v0Zm.92-.74l-.54-.16,.54,.16Zm-11.5-3.77h0Zm.44-.68h0Z"/><path class="c" d="M13.09,38.17c-1.21,0-2.29-.53-2.76-1.37l-6.02-10.76c-1.25-.48-2.12-1.14-2.58-1.96-.33-.6-.44-1.28-.32-1.97l.33-3.15c0-.44,.13-.94,.38-1.44,1.19-2.4,5.21-4.52,10.75-5.68,2.07-.44,4.23-.69,6.23-.74,4.04-.1,7.11,.6,8.64,1.97,.23,.21,.25,.57,.04,.8-.21,.23-.57,.25-.8,.04-1.29-1.16-4.16-1.77-7.85-1.68-1.94,.05-4.02,.3-6.03,.72-5.04,1.06-8.96,3.05-9.97,5.08-.17,.34-.26,.68-.26,1l-.34,3.24c-.09,.48-.02,.88,.19,1.26,.35,.62,1.08,1.13,2.17,1.52,.13,.05,.24,.14,.31,.26l6.12,10.94c.27,.49,1.02,.8,1.84,.79,.17,0,.35-.02,.52-.06l3.48-.73c.31-.06,.61,.13,.67,.44,.06,.31-.13,.61-.44,.67l-3.48,.73c-.24,.05-.49,.08-.73,.09-.03,0-.07,0-.1,0Z"/></g></g></svg>