<?xml version="1.0" encoding="UTF-8"?><svg xmlns="http://www.w3.org/2000/svg" viewBox="0 0 125 50"><defs><style>.c{fill:#4b4a4a;}</style></defs><g id="a"><g><path class="c" d="M55.27,19.86h4.13c.99,0,1.86,.19,2.62,.57,.76,.38,1.35,.91,1.77,1.59,.42,.68,.63,1.48,.63,2.39s-.21,1.71-.63,2.39c-.42,.68-1.01,1.22-1.77,1.59-.76,.38-1.63,.57-2.62,.57h-4.13v-9.1Zm4.03,7.37c.91,0,1.64-.25,2.18-.76,.54-.51,.81-1.19,.81-2.06s-.27-1.55-.81-2.06c-.54-.51-1.27-.76-2.18-.76h-1.92v5.64h1.92Z"/><path class="c" d="M73.06,27.27v1.69h-7.05v-9.1h6.88v1.69h-4.78v1.98h4.22v1.64h-4.22v2.11h4.95Z"/><path class="c" d="M75.64,28.83c-.67-.19-1.21-.45-1.62-.76l.71-1.59c.39,.29,.85,.52,1.39,.69,.54,.17,1.07,.26,1.61,.26,.6,0,1.04-.09,1.33-.27s.43-.41,.43-.71c0-.22-.08-.4-.25-.54-.17-.14-.39-.26-.65-.34-.26-.09-.62-.18-1.07-.29-.69-.17-1.26-.33-1.7-.49s-.82-.43-1.14-.79-.47-.85-.47-1.46c0-.53,.14-1.01,.43-1.44s.72-.77,1.29-1.02c.58-.25,1.28-.38,2.11-.38,.58,0,1.15,.07,1.7,.21s1.04,.34,1.46,.6l-.65,1.6c-.84-.48-1.68-.71-2.52-.71-.59,0-1.02,.09-1.31,.29-.28,.19-.42,.44-.42,.75s.16,.54,.49,.7c.33,.15,.82,.3,1.49,.45,.69,.17,1.26,.33,1.7,.49,.44,.16,.82,.42,1.14,.78,.32,.36,.47,.84,.47,1.44,0,.52-.15,.99-.44,1.42-.29,.43-.73,.77-1.31,1.02-.58,.25-1.29,.38-2.12,.38-.72,0-1.42-.1-2.09-.29Z"/><path class="c" d="M83.93,28.83c-.67-.19-1.21-.45-1.62-.76l.72-1.59c.39,.29,.85,.52,1.39,.69,.54,.17,1.07,.26,1.61,.26,.6,0,1.04-.09,1.33-.27,.29-.18,.43-.41,.43-.71,0-.22-.08-.4-.25-.54-.17-.14-.39-.26-.65-.34-.26-.09-.62-.18-1.07-.29-.69-.17-1.26-.33-1.7-.49-.44-.17-.82-.43-1.14-.79s-.47-.85-.47-1.46c0-.53,.14-1.01,.43-1.44s.72-.77,1.29-1.02c.58-.25,1.28-.38,2.11-.38,.58,0,1.15,.07,1.7,.21s1.04,.34,1.46,.6l-.65,1.6c-.84-.48-1.68-.71-2.52-.71-.59,0-1.03,.09-1.31,.29-.28,.19-.42,.44-.42,.75s.16,.54,.49,.7c.33,.15,.82,.3,1.49,.45,.69,.17,1.26,.33,1.7,.49,.44,.16,.82,.42,1.14,.78,.32,.36,.47,.84,.47,1.44,0,.52-.15,.99-.44,1.42-.29,.43-.73,.77-1.31,1.02-.58,.25-1.29,.38-2.12,.38-.72,0-1.42-.1-2.09-.29Z"/><path class="c" d="M98.37,27.27v1.69h-7.05v-9.1h6.88v1.69h-4.78v1.98h4.22v1.64h-4.22v2.11h4.95Z"/><path class="c" d="M105.84,28.96l-1.75-2.54h-1.94v2.54h-2.11v-9.1h3.94c.81,0,1.51,.13,2.1,.4s1.05,.65,1.37,1.14c.32,.49,.48,1.08,.48,1.75s-.16,1.26-.49,1.75c-.33,.49-.79,.87-1.38,1.12l2.04,2.92h-2.26Zm-.53-6.97c-.33-.27-.81-.41-1.44-.41h-1.72v3.17h1.72c.63,0,1.11-.14,1.44-.42s.49-.67,.49-1.17-.17-.9-.49-1.18Z"/><path class="c" d="M111.36,21.58h-2.91v-1.72h7.93v1.72h-2.91v7.38h-2.11v-7.38Z"/></g><path class="c" d="M28.05,7.46c-.62-.28-1.05,.68-.43,.96s1.05-.68,.43-.96ZM7.3,16.24c.09,.04,.18,.05,.25,.05-.06,.14-.06,.31,.03,.48,.7,1.27,2.26,1.5,3.43,2.15,.59,.33,1.02-.64,.43-.96-.99-.55-2.41-.73-3-1.8-.11-.2-.28-.26-.44-.23,.08-.23,.02-.51-.27-.64-.62-.28-1.05,.68-.43,.96Zm12.49,5.9c.62,.28,1.05-.68,.43-.96s-1.05,.68-.43,.96Zm-7.94-3.59c-.19,.23-.14,.54,.07,.74,.16,.15,.36,.16,.55,.26,.23,.12,.51,.01,.65-.19-.03,.25,.1,.53,.42,.6,1.51,.32,2.77,1.32,4.35,1.4,.67,.03,.84-1.01,.16-1.04-1.56-.08-2.84-1.08-4.35-1.4-.23-.05-.4,.04-.49,.19,.01-.21-.11-.42-.31-.52-.1-.05-.21-.08-.32-.12-.21-.18-.56-.12-.73,.08Zm-7.6,.79c-.03,.68,0,1.39,.36,1.99,.34,.58,1.07,.98,1.74,.71-.03,1.55-.16,3.1-.15,4.65,0,1.24-.1,2.47-.18,3.7-.08,1.31-.16,2.63-.02,3.94,.11,1.06,.35,2.3,1.08,3.12,.75,.85,1.77,1.34,2.78,1.83,1.15,.55,2.2,1.26,3.31,1.88,1.31,.73,2.65,1.42,3.91,2.25,.93,.62,1.75,1.41,2.71,1.98,.68,.41,1.42,.5,2.18,.27,1.22-.37,2.36-1.14,3.44-1.79,1.29-.77,2.56-1.64,3.91-2.3,1.39-.67,2.76-1.36,4.13-2.07,1.35-.7,2.7-1.42,4.03-2.17,.93-.52,1.92-.91,2.9-1.31,1.96-.82,4.38-1.71,5.66-3.51,.65-.91,.78-1.94,.79-3.03,0-.62-.02-1.24-.01-1.86,0-.57,.08-1.12,.14-1.68,.29-2.79,.2-5.59,.38-8.39,.26,.09,.51,.15,.75,.12,.79-.09,1.09-.63,1.21-1.35,.15-.84,.17-1.71,.17-2.56,0-.67,.04-1.41-.38-1.97-.59-.8-1.53-1.27-2.46-1.55-2.35-.72-4.78-.5-7.2-.32-2.61,.2-5.22,.47-7.84,.58-.05-.75-.24-1.5-.69-2.1-.52-.7-1.22-1.23-1.93-1.72-1.21-.83-3.25-1.82-3.35-3.5-.02-.29-.21-.43-.43-.45-.08-.02-.18-.01-.28,.02-1.53,.49-3.07,1.09-4.27,2.17-1.17,1.06-1.84,2.54-2.06,4.09-.13,.93-.06,1.83,.19,2.65-1.13,.14-2.27,.13-3.4,.15-1.64,.02-3.26,.21-4.88,.43-1.2,.16-2.5,.41-3.54,1.06-.54,.34-.92,.9-1.24,1.44-.81,1.36-1.4,3.02-1.47,4.61ZM21.22,5.86s-.03,.05-.05,.08c-.72,1.25-.91,2.73-.73,4.16,.14,1.1,.55,2.15,1.26,3.01,.34,.41,.72,.79,1.13,1.13-.87-.27-1.67-.72-2.26-1.42-1.21-1.42-1.22-3.4-.58-5.09,.29-.75,.71-1.37,1.23-1.87Zm8.16,7.56l-.03,.02c.37-.91,.24-1.96-.26-2.87-.54-.98-1.61-1.51-2.53-2.07-.8-.49-1.67-1.07-1.52-2.12,.03-.25-.08-.43-.25-.52,.39-.13,.54-.77,.06-.98-.6-.27-1.02,.62-.49,.93-.18,.05-.32,.18-.36,.41-.33,2.36,2.14,2.98,3.58,4.19,.78,.65,1.35,1.99,.66,2.91-.36,.49-.88,.8-1.45,.98-.2-1.47-1.72-2.13-2.58-3.31-1.07-1.48-1.12-3.2-.41-4.85,.27-.62-.69-1.05-.96-.43-.74,1.69-.83,3.57,.09,5.22,.45,.8,1.06,1.41,1.75,2,.5,.43,1.02,.89,1.08,1.55-.23,.01-.47,.01-.7,0-.06,0-.12,0-.18,.01-1.57-1.1-3.12-2.37-3.38-4.39-.16-1.23-.08-2.51,.55-3.6,.62-1.07,1.59-1.9,2.68-2.46,.48,1.44,2.01,2.38,3.21,3.19,.72,.49,1.53,.99,2.06,1.7,.3,.39,.48,.89,.55,1.41-.34-.77-.87-1.49-1.46-2.09-.48-.48-1.14,.34-.67,.81,.63,.64,1.21,1.43,1.43,2.31,.2,.78,0,1.47-.48,2.05Zm16.78,8.36c-4.19,1.49-8.26,3.28-12.4,4.91-2.08,.82-4.18,1.64-6.33,2.26-1.7,.49-3.43,.97-4.96,1.88,0-.08,.01-.16,.02-.24,.1-1.37,.21-2.74,.36-4.1,.56,.09,1.13,.27,1.69,.2,.6-.08,.92-.53,1.17-1.04,.4-.81,.66-1.83,1.29-2.49,.17-.18,.32-.24,.47-.21,.21,.03,.46,.15,.68,.28,1.08,.61,3.25,2.24,4.37,.91,.46-.54,.52-1.3,.66-1.97,.12-.57,.35-1.52,1.09-1.55,.79-.03,1.44,.74,2.24,.82,1.02,.1,1.84-.57,2.43-1.35,.36-.47,.6-1.15,.95-1.53,.04-.05,.05-.06,.16-.1,0,0,.18-.02,.25-.01,.45,.05,.88,.19,1.31,.33,.56,.19,1.54,.58,1.99-.04,.31-.44,.15-1.02,.39-1.49,.56-1.09,1.44-.68,2.35-.21-.12,1.57-.13,3.15-.17,4.73Zm-3.44-3.64h0v.02s0-.02,0-.02Zm3.36,5.77c-2.21,.72-4.32,1.7-6.46,2.58-2,.82-4.01,1.63-6.03,2.41-3.95,1.52-7.93,3.08-11.55,5.31,.11-.7,.21-1.4,.3-2.1,.07-.01,.15-.04,.22-.09,1.65-1.15,3.65-1.62,5.54-2.18,2.11-.62,4.16-1.43,6.2-2.24,3.94-1.56,7.83-3.25,11.82-4.7-.01,.34-.03,.67-.05,1.01Zm-.18,2.25c-4.26,1.52-8.27,3.65-12.29,5.69-2.04,1.04-4.09,2.06-6.2,2.97-1.91,.83-3.9,1.48-5.77,2.4,.05-.63,.14-1.26,.23-1.88,.14,.04,.29,.03,.44-.06,3.68-2.33,7.77-3.89,11.81-5.45,2.02-.78,4.03-1.59,6.04-2.42,1.94-.81,3.86-1.68,5.85-2.36-.02,.18-.03,.36-.05,.53-.02,.19-.04,.39-.05,.58Zm-.1,3.13c-1.76,1.11-3.62,2.05-5.44,3.06-.96,.53-1.88,1.12-2.85,1.63-.84,.44-1.7,.83-2.56,1.24-1.25,.59-2.45,1.25-3.61,2-1.08,.71-2.13,1.47-3.21,2.18-1.02,.67-2.07,1.33-3.23,1.75-.65,.24-1.9,.8-2.55,.28-.8-.64-.8-2.05-.79-3.01,2-1.04,4.15-1.73,6.21-2.63,2.1-.92,4.15-1.93,6.2-2.97,3.88-1.97,7.75-4.01,11.84-5.52-.02,.56-.03,1.12-.03,1.69,0,.1,0,.2,0,.3ZM7.39,21.53c.29,.15,.23,.67,.36,.94,.19,.4,.38,.91,.66,1.26,.27,.34,.86,.59,1.29,.51,.48-.09,.83-.38,1.26-.57,.23-.1,.47-.14,.59,.12,.28,.6,.21,1.32,.52,1.91,.4,.76,1.19,1.11,2.05,.92,.78-.17,1.2-.63,1.75-1.16-.02,.02,.02-.01,.05-.04,.04,.02,.1,.07,.16,.13,.34,.33,.59,.74,.8,1.17,.38,.77,.78,1.82,1.71,2.06,.96,.25,2-.56,2.52-1.3,.19-.27,.32-.58,.53-.83,.05-.05,.1-.09,.16-.12-.24,2.28-.33,4.57-.69,6.83-.34,2.16-.87,4.52-.48,6.7,.17,.92,.51,2.07,1.49,2.44,.91,.34,1.88,.09,2.76-.22,2.38-.83,4.38-2.39,6.44-3.79,1.14-.77,2.31-1.48,3.55-2.08,1.26-.61,2.54-1.17,3.75-1.86,2.35-1.35,4.77-2.58,7.09-3.98-.08,.48-.24,.95-.56,1.34-1.4,1.75-3.8,2.54-5.79,3.37-2.46,1.03-4.74,2.43-7.12,3.64-1.35,.69-2.76,1.3-4.07,2.05-1.3,.74-2.56,1.55-3.86,2.31-.65,.38-1.3,.78-1.98,1.09-.36,.17-.75,.34-1.16,.36-.73,.03-1.36-.58-1.89-1-2.29-1.81-4.96-2.98-7.4-4.55-.94-.61-2.01-.99-2.97-1.56-.9-.54-1.44-1.25-1.69-2.26-.52-2.05-.21-4.28-.07-6.36,.08-1.13,.06-2.26,.09-3.39,.04-1.36,.14-2.72,.14-4.08Zm-.56-6.6c1.19-1.69,3.75-1.63,5.62-1.86,1.36-.17,2.69-.21,4.06-.23,.91-.01,1.81-.05,2.71-.18,.52,.93,1.32,1.71,2.39,2.22,1.67,.8,3.62,.95,5.43,.65,.89-.15,1.78-.47,2.54-.96,.11-.01,.22-.06,.31-.15,.11-.1,.2-.21,.29-.31,.74-.65,1.27-1.51,1.4-2.57,.7-.03,1.4-.06,2.1-.11,2.75-.18,5.49-.51,8.24-.62,1.16-.05,2.3-.08,3.44,.16,.93,.2,2.01,.5,2.7,1.2,.46,.47,.37,1.16,.36,1.79,0,.8,0,1.65-.21,2.42-.02,.06-.05,.13-.06,.17-.03,0-.14,.06-.2,.06-.35-.04-.67-.2-.97-.37-.69-.37-1.55-.93-2.38-.73-.87,.21-1.5,.9-1.75,1.75-.07,.25-.09,.5-.12,.76-1.38-.21-3-1.35-3.94,.27-.35,.6-.65,1.22-1.18,1.69-.34,.3-.73,.54-1.2,.37-.38-.14-.72-.35-1.08-.52-.83-.38-1.73-.34-2.39,.35-.54,.56-.72,1.35-.86,2.1-.08,.4-.13,1.26-.63,1.29-.78,.04-1.65-.56-2.3-.95-.55-.33-1.12-.71-1.78-.71-.74,0-1.25,.59-1.6,1.18-.44,.74-.7,1.73-1.15,2.39-.09,.13-.09,.14-.15,.18,.01,0-.02,0-.09,0-.14,0-.51-.06-.74-.1-.31-.05-.67-.12-1.04-.16-.14-.06-.3-.07-.43-.02-.4,.01-.77,.1-1.07,.34-.55,.45-.72,1.2-1.3,1.63-.31,.24-.81,.64-1.18,.29-.3-.29-.48-.7-.66-1.06-.38-.76-.85-1.8-1.7-2.14-.68-.26-1.11,.29-1.53,.72-.34,.35-1.26,.8-1.63,.26-.36-.52-.27-1.27-.5-1.84-.32-.77-1.09-1.27-1.91-.91-.24,.11-.47,.24-.7,.37-.11,.06-.31,.21-.44,.18-.46-.11-.46-.49-.67-.87-.24-.41-.21-.98-.51-1.35-.25-.31-.74-.62-1.17-.52-.44,.1-.74,.38-1.14,.55-.21,.09-.37,.01-.46-.1-.33-.42-.35-1.06-.3-1.6,.13-1.51,.66-3.15,1.54-4.39Z"/></g><g id="b"/></svg>