<svg id="Layer_1" data-name="Layer 1" xmlns="http://www.w3.org/2000/svg" viewBox="0 0 125 50"><defs><style>.cls-1{fill:#4b4a4a;}</style></defs><path class="cls-1" d="M48.4,20.53h2.11v7.38h4.56v1.72H48.4Z"/><path class="cls-1" d="M56.25,20.53h2.11v9.1H56.25Z"/><path class="cls-1" d="M68.42,25.72a2.32,2.32,0,0,1,.44,1.43A2.11,2.11,0,0,1,67.93,29a4.82,4.82,0,0,1-2.71.64h-4.7v-9.1H65a4.34,4.34,0,0,1,2.56.64,2,2,0,0,1,.89,1.72,2.25,2.25,0,0,1-.32,1.19,2.28,2.28,0,0,1-.89.82A2.41,2.41,0,0,1,68.42,25.72Zm-5.81-3.61v2.15H64.7A2.1,2.1,0,0,0,65.88,24a.92.92,0,0,0,.41-.81.91.91,0,0,0-.41-.8,2.1,2.1,0,0,0-1.18-.27Zm3.71,5.66a.93.93,0,0,0,.42-.85c0-.75-.56-1.13-1.67-1.13H62.61V28h2.46A2.34,2.34,0,0,0,66.32,27.77Z"/><path class="cls-1" d="M76.45,27.68H72.23l-.81,1.95H69.26l4.06-9.1H75.4l4.07,9.1H77.26Zm-.66-1.6L74.35,22.6,72.9,26.08Z"/><path class="cls-1" d="M81.85,22.25H78.94V20.53h7.93v1.72H84v7.38h-2.1Z"/><path class="cls-1" d="M88,20.53h2.1v9.1H88Z"/><path class="cls-1" d="M94.11,29.17a4.43,4.43,0,0,1-1.78-1.68,4.86,4.86,0,0,1,0-4.82A4.53,4.53,0,0,1,94.11,21a5.66,5.66,0,0,1,5.11,0A4.66,4.66,0,0,1,101,22.67a4.63,4.63,0,0,1-1.78,6.5,5.57,5.57,0,0,1-5.11,0Zm4-1.55a2.59,2.59,0,0,0,1-1,3.27,3.27,0,0,0,0-3,2.53,2.53,0,0,0-1-1,2.82,2.82,0,0,0-1.45-.37,2.88,2.88,0,0,0-1.46.37,2.66,2.66,0,0,0-1,1,3.27,3.27,0,0,0,0,3,2.73,2.73,0,0,0,1,1,2.88,2.88,0,0,0,1.46.37A2.82,2.82,0,0,0,98.12,27.62Z"/><path class="cls-1" d="M111.58,20.53v9.1h-1.73l-4.54-5.53v5.53h-2.08v-9.1H105l4.52,5.52V20.53Z"/><path class="cls-1" d="M114.64,29.49a4.88,4.88,0,0,1-1.62-.76l.72-1.58a4.87,4.87,0,0,0,1.39.68,5,5,0,0,0,1.61.26,2.58,2.58,0,0,0,1.33-.26.82.82,0,0,0,.43-.71.67.67,0,0,0-.26-.54,1.81,1.81,0,0,0-.65-.34,10.07,10.07,0,0,0-1.07-.29,14.93,14.93,0,0,1-1.7-.49,2.76,2.76,0,0,1-1.14-.8,2.11,2.11,0,0,1-.48-1.45,2.59,2.59,0,0,1,.43-1.44,2.89,2.89,0,0,1,1.3-1,5.27,5.27,0,0,1,2.11-.38,6.88,6.88,0,0,1,1.7.21,5.08,5.08,0,0,1,1.46.6l-.65,1.6a5,5,0,0,0-2.52-.72,2.37,2.37,0,0,0-1.31.29.87.87,0,0,0-.42.75.73.73,0,0,0,.49.7,7.88,7.88,0,0,0,1.48.45,15.17,15.17,0,0,1,1.71.49,2.87,2.87,0,0,1,1.13.78,2.09,2.09,0,0,1,.48,1.44,2.51,2.51,0,0,1-.44,1.43,2.89,2.89,0,0,1-1.3,1,5.36,5.36,0,0,1-2.12.38A7.28,7.28,0,0,1,114.64,29.49Z"/><path class="cls-1" d="M37.93,15.63a.36.36,0,0,0-.27-.12H18.05a.38.38,0,0,0,0,.75H37.27l-.18,4H34.28a.38.38,0,1,0,0,.75h2.77l-.14,3.22a.51.51,0,0,0-.07.17l-.69,6.39a5.25,5.25,0,0,1-5.23,4.68H21.81a5.24,5.24,0,0,1-5.22-4.68l-.7-6.39a.27.27,0,0,0-.05-.15L15.7,21h9.63a.38.38,0,1,0,0-.75H15.8l-.13,0-.22-5v0l3.82-3.83,0,0a6.08,6.08,0,0,1,1.06,1.52.37.37,0,1,0,.67-.33,6.84,6.84,0,0,0-13,3,6.82,6.82,0,0,0,4.11,6.27.4.4,0,0,0,.15,0,.37.37,0,0,0,.34-.22.38.38,0,0,0-.19-.5,5.88,5.88,0,0,1-1.71-1.12,6.08,6.08,0,0,1-1.95-4.46v0a.38.38,0,0,0,.27.12h2.58a.38.38,0,0,0,0-.76H9.08a.39.39,0,0,0-.24.09,6.07,6.07,0,0,1,1.64-3.6l0,0,3.85,3.85-3.84,3.85a.37.37,0,0,0,0,.53.38.38,0,0,0,.26.11.4.4,0,0,0,.27-.11L14.73,16l.93,21.6a3.19,3.19,0,0,0,3.19,3.07h15a3.17,3.17,0,0,0,3.19-3.07L38,15.9A.39.39,0,0,0,37.93,15.63ZM11.05,10.91a0,0,0,0,1,0,0,6.06,6.06,0,0,1,3.49-1.37v2.54a.38.38,0,1,0,.75,0V9.52a6,6,0,0,1,3.5,1.37l0,0-3.85,3.85Zm22.83,29h-15a2.43,2.43,0,0,1-2.44-2.35l-.22-5.2a6,6,0,0,0,5.62,3.9h9.11a6,6,0,0,0,5.63-3.92l-.23,5.22A2.43,2.43,0,0,1,33.88,39.91Z"/><path class="cls-1" d="M20.81,25.47a.38.38,0,0,0-.47.25L18.71,31a.38.38,0,0,0,.25.47l5.3,1.63.11,0a.34.34,0,0,0,.17-.05.35.35,0,0,0,.19-.22l1.62-5.29a.37.37,0,0,0-.25-.47Zm3.31,6.81-4.58-1.4L21,26.3l4.57,1.41Z"/><path class="cls-1" d="M29.8,27.79a.39.39,0,0,0,.27-.11L34,23.76a.39.39,0,0,0,.11-.27.36.36,0,0,0-.11-.26l-3.91-3.92a.37.37,0,0,0-.53,0l-3.92,3.92a.37.37,0,0,0,0,.53l3.92,3.92A.36.36,0,0,0,29.8,27.79Zm0-7.68,3.39,3.38L29.8,26.88l-3.38-3.39Z"/></svg>