<?xml version="1.0" encoding="UTF-8"?><svg xmlns="http://www.w3.org/2000/svg" viewBox="0 0 125 50"><defs><style>.c{fill:#4b4a4a;}</style></defs><g id="a"><g><path class="c" d="M58.81,21.89h2.11v7.38h4.56v1.72h-6.67v-9.1Z"/><path class="c" d="M67.55,30.07c-.72-.72-1.09-1.75-1.09-3.08v-5.1h2.11v5.02c0,1.63,.68,2.44,2.03,2.44,.66,0,1.16-.2,1.51-.59s.52-1.01,.52-1.85v-5.02h2.08v5.1c0,1.33-.36,2.36-1.08,3.08-.72,.72-1.74,1.08-3.04,1.08s-2.31-.36-3.04-1.08Z"/><path class="c" d="M85.13,21.89v9.1h-1.73l-4.54-5.53v5.53h-2.08v-9.1h1.74l4.52,5.52v-5.52h2.08Z"/><path class="c" d="M89.13,30.55c-.75-.4-1.34-.96-1.77-1.68-.43-.71-.64-1.52-.64-2.42s.21-1.71,.64-2.42c.43-.71,1.02-1.27,1.77-1.68,.75-.4,1.59-.6,2.53-.6,.79,0,1.5,.14,2.14,.42s1.17,.68,1.61,1.2l-1.35,1.25c-.62-.71-1.38-1.07-2.29-1.07-.56,0-1.07,.12-1.51,.37-.44,.25-.79,.59-1.03,1.03-.25,.44-.37,.95-.37,1.51s.12,1.07,.37,1.51,.59,.79,1.03,1.03c.44,.25,.94,.37,1.51,.37,.91,0,1.67-.36,2.29-1.08l1.35,1.25c-.43,.53-.97,.93-1.61,1.21s-1.36,.42-2.14,.42c-.93,0-1.77-.2-2.52-.6Z"/><path class="c" d="M105.17,21.89v9.1h-2.11v-3.73h-4.13v3.73h-2.11v-9.1h2.11v3.59h4.13v-3.59h2.11Z"/></g><path class="c" d="M23.86,29.96c-.67-.03-.71,1-.04,1.03s.71-1,.04-1.03Zm7.34-.93c-.67-.03-.71,1-.04,1.03s.71-1,.04-1.03Zm2.14,.63c-.67-.03-.71,1-.04,1.03s.71-1,.04-1.03Zm-7.43-.47c-.67-.03-.71,1-.04,1.03s.71-1,.04-1.03Zm-12.58-2.5c-.67-.03-.71,1-.04,1.03s.71-1,.04-1.03Zm14.59,2.7c-.67-.03-.71,1-.04,1.03s.71-1,.04-1.03Zm-6.46-.91c-.67-.03-.71,1-.04,1.03s.71-1,.04-1.03Zm-4.25,.45c-.67-.03-.71,1-.04,1.03s.71-1,.04-1.03Zm1.32-.82c-.67-.03-.71,1-.04,1.03s.71-1,.04-1.03Zm4.04,1.2c-.67-.03-.71,1-.04,1.03s.71-1,.04-1.03Zm-8.46-3.55c-.67-.03-.71,1-.04,1.03s.71-1,.04-1.03Zm6.47,1.09c-.67-.03-.71,1-.04,1.03s.71-1,.04-1.03Zm18.18,2.75c-.67-.03-.71,1-.04,1.03s.71-1,.04-1.03ZM28.07,12.21c.28,.27,.69,.4,1.04,.19,.39-.22,.5-.7,.5-1.12,0-.28-.2-.53-.49-.54-.08,0-.16,.01-.24,.05,.01-.01,.02-.03,.03-.04h.01s.02-.03,.03-.05c.19-.21,.23-.51,.03-.73-.18-.2-.54-.24-.73-.03-.33,.35-.57,.77-.58,1.26,0,.36,.13,.75,.39,1.01Zm.48-.66h0s0,0,0,0Zm5.84,.03c.33-.22,.46-.55,.4-.94-.06-.39-.41-.71-.71-.92-.23-.17-.57-.07-.71,.15-.16,.25-.07,.55,.15,.71,.04,.03,.07,.05,.1,.08-.02-.01-.05-.02-.06-.03-.04-.02-.08-.05-.12-.07-.11-.07-.19-.16-.28-.27-.43-.51-1.19,.19-.76,.7,.44,.51,1.32,1.04,1.98,.59Zm-.54-.88h0Zm-3.11,3.63c.16,.22,.47,.17,.69,.14,.69-.08,1.06-.7,1.06-1.35,0-.66-1.03-.71-1.03-.04,0,.04,0,.08,0,.12,0,0-.01,.09-.01,.11,0,.02-.01,.04-.02,.07h0c-.02-.17,.01-.39,.04-.54,.05-.28-.24-.53-.49-.54-.31-.01-.49,.22-.54,.49-.06,.34-.06,.69,.04,1.03,.06,.2,.15,.36,.27,.53Zm-6.49-2.65c.4,.11,.81-.06,1.13-.29,.23-.16,.36-.43,.22-.7-.03-.07-.09-.12-.15-.17,.09-.02,.18-.03,.27-.04,.28-.03,.45-.37,.39-.62-.07-.3-.34-.42-.62-.39-.75,.08-1.76,.51-1.81,1.4-.02,.36,.22,.71,.57,.81Zm12.34,16.15c-.67-.03-.71,1-.04,1.03s.71-1,.04-1.03Zm-12.24-13.49c.4,0,.76-.23,1.04-.49,.2-.19,.22-.52,.03-.73-.05-.05-.11-.09-.17-.12,.06-.1,.08-.22,.05-.35-.06-.25-.35-.48-.62-.39-.38,.13-.71,.32-.95,.65-.2,.28-.24,.64-.11,.96,.11,.29,.44,.47,.74,.47Zm.03-1.04h0s-.01,0,0,0Zm25.67,15.39c.55-.67,.96-1.45,1.18-2.32,.28-1.13,.02-2.13-.59-2.93,.44,.08,.89,.06,1.27-.25,1.58-1.27-.61-3.72-2.42-3.56,.55-3.14-1.8-6.67-4.32-8.34-2.81-1.87-6.21-2.79-9.51-3.29-3.68-.55-7.5-.48-11.15,.3-3.27,.7-6.57,2.08-8.89,4.56-1.3,1.39-2.27,3.15-2.63,5.03-.21,1.12-.14,2.23,.47,3.2-.39-.11-.8-.13-1.21-.05-.94,.19-1.83,1.04-2.06,1.97-.21,.86,.28,1.68,1.07,2.01,.39,.16,.84,.17,1.28,.14-.82,.99-1.11,2.32-.31,3.56,.11,.17,.24,.33,.38,.48-.62,.26-1.29,.57-1.54,1.21-.37,.93,.41,1.55,1.24,1.69,.03,0,.06,0,.09,.01-.33,.73-.31,1.51,.24,2.18-1.19,1.25-1.17,3.66-.08,4.95,.62,.73,1.62,1,2.52,1.18,1.05,.21,2.12,.33,3.17,.55,3,.63,6.01,.66,9.06,.6,3.08-.05,6.15-.2,9.23-.35,2.01-.1,4.03-.18,6.04-.3,1.85-.11,3.73-.33,5.44-1.08,.67-.29,1.27-.66,1.71-1.24,.39-.51,.64-1.16,.78-1.78,.23-1.01,.13-2.16-.62-2.83,.05-.04,.1-.08,.14-.12,.7-.68,.72-1.73,.69-2.66,.38-.11,.75-.26,1.02-.52,.97-.92-.73-1.65-1.69-1.99Zm.01-1.99c-.2,.1-.29,.33-.26,.54-.08,.15-.17,.29-.26,.43-.07-.14-.21-.26-.42-.26-.62-.03-.7,.86-.18,1.01-.04,.04-.08,.09-.13,.13-.08-.09-.19-.15-.34-.15-.47-.02-.63,.48-.45,.79-.24,.16-.5,.31-.77,.44-.05-.08-.11-.14-.21-.18,.53-.11,.52-.99-.09-1.02s-.69,.78-.24,.99c-.29,.06-.42,.35-.37,.6-.11,.04-.23,.08-.34,.12-.02-.23-.17-.45-.47-.46-.43-.02-.6,.41-.49,.72-.08,.02-.17,.04-.25,.05,0-.25-.16-.5-.48-.51-.42-.02-.59,.38-.5,.69-.19,.03-.37,.05-.55,.08,.03-.15,0-.32-.1-.44,.61-.03,.63-1-.01-1.03-.5-.02-.65,.56-.41,.86-.39,.02-.54,.43-.42,.73-.45,.05-.9,.09-1.35,.12,.02-.27-.13-.55-.47-.56-.39-.02-.57,.33-.51,.63-.46,.03-.92,.05-1.38,.07-.01-.24-.17-.46-.48-.48-.34-.01-.52,.25-.52,.51-.09,0-.19,0-.28,0-.03-.22-.18-.42-.47-.44-.32-.01-.49,.21-.52,.46-.15,0-.3,0-.46,0,.13-.3,0-.73-.43-.75-.45-.02-.62,.45-.47,.76h-.05c-.06-.17-.21-.31-.44-.32-.26-.01-.43,.14-.49,.33-.14,0-.27,0-.41,0-.06-.17-.21-.3-.44-.31-.17,0-.3,.05-.38,.15,.02-.26-.13-.54-.47-.56-.45-.02-.62,.45-.47,.76-.23,0-.46,.01-.69,.02,.02-.27-.13-.55-.47-.57-.38-.02-.55,.31-.52,.59h-.23c-.02-.09-.06-.18-.13-.25,.32-.26,.24-.91-.29-.93s-.66,.61-.38,.89c-.08,.07-.14,.16-.17,.26-.02-.23-.17-.45-.47-.46-.36-.02-.54,.28-.52,.55-.14,0-.27,0-.41,0-.04-.21-.19-.4-.47-.41-.31-.01-.48,.2-.52,.43-.08,0-.15,0-.23,0h-.16c.28-.27,.19-.88-.32-.9s-.67,.63-.36,.91c-.1,0-.21,0-.31,0-.02-.23-.17-.45-.47-.46s-.49,.21-.52,.45c-.44,0-.87-.02-1.31-.05,.22-.29,.11-.83-.37-.85s-.63,.48-.45,.8c-.05,0-.11,0-.16-.01-.05-.22-.25-.4-.48-.4h-.06c-.08,0-.15,.02-.22,.04,.26-.28,.16-.86-.34-.88-.25-.01-.41,.13-.48,.3-.07-.16-.21-.28-.43-.29-.54-.02-.67,.66-.34,.92-.13-.02-.26-.05-.4-.07,.03-.27-.12-.57-.47-.59-.09,0-.16,.01-.23,.04,.34-.25,.26-.92-.27-.94-.67-.03-.71,1-.04,1.03,.09,0,.16-.01,.23-.04-.09,.07-.16,.17-.19,.28-.49-.12-.98-.26-1.46-.42,0-.25-.15-.5-.48-.52-.19,0-.33,.07-.41,.18-.1-.04-.19-.08-.29-.12,.52-.12,.51-.99-.11-1.02-.44-.02-.61,.43-.48,.74-.18-.09-.36-.19-.53-.29-.13-.07-.26-.15-.38-.23,.42-.2,.37-.96-.2-.99-.29-.01-.46,.18-.51,.4-.14-.16-.27-.34-.37-.55-.58-1.22,.44-2.36,1.47-2.88,.12,0,.24,.01,.36,.04-.06,.25,.03,.54,.3,.63-.03,.27,.13,.56,.47,.57,.03,0,.06,0,.09,0-.06,.3-.17,.62-.1,.94-.08-.08-.19-.13-.33-.13-.67-.03-.71,1-.04,1.03,.35,.02,.53-.27,.52-.54,.46,.72,1.61,.7,2.31,.36,.87-.41,1.41-1.3,2.3-1.67,.07-.03,.14-.05,.21-.07,.02,.24,.17,.46,.48,.47,.32,.01,.5-.22,.52-.47,.24,.08,.45,.22,.66,.39,.04,.21,.18,.39,.45,.41,.21,.21,.42,.43,.64,.63,.45,.4,.99,.71,1.61,.66,.63-.06,1.17-.36,1.63-.77-.02,.26,.14,.54,.48,.55,.67,.03,.71-1,.04-1.03-.02,0-.04,0-.06,0,.02-.03,.04-.05,.06-.08,.28-.34,.5-.51,.95-.58h.02c-.14,.3,0,.74,.42,.75,.39,.02,.57-.33,.51-.62,.17,.07,.33,.17,.48,.29,.72,.56,1.24,1.29,2.2,1.46,.86,.15,1.57-.16,2.27-.53,.07,.05,.16,.09,.28,.09,.35,.02,.52-.26,.52-.53,.18-.09,.36-.18,.54-.26,.06,.18,.21,.32,.45,.33,.36,.02,.54-.28,.52-.56,.03,0,.06,0,.09,0-.22,.29-.11,.83,.37,.85,.35,.02,.53-.27,.52-.54,.9,.58,1.57,1.82,2.54,2.2,.05,.02,.1,.04,.15,.05-.37,.23-.3,.94,.25,.96s.67-.63,.36-.91c.74-.06,1.53-.51,1.94-1.04,.29-.38,.34-.81,.38-1.25,.3-.15,.36-.59,.14-.83,.03-.1,.07-.19,.12-.29h.02c.36,.02,.54-.28,.52-.56,.19-.08,.4-.08,.65,0,.06,.02,.11,.04,.17,.06-.02,0-.04,0-.06,0-.67-.03-.71,1-.04,1.03,.53,.02,.67-.63,.36-.91,.39,.2,.75,.47,1.11,.7,.5,.32,1.02,.61,1.6,.72-.14,.3-.01,.74,.42,.76,.49,.02,.64-.53,.43-.83,.35-.14,.65-.39,.9-.69,.42-.5,.52-1.12,.23-1.7-.02-.04-.04-.08-.07-.12,.32-.24,.26-.87-.23-.93,.03-.04,.05-.08,.07-.13,.61,.42,1.11,.96,1.25,1.73-.05-.02-.12-.04-.19-.04-.67-.03-.71,1-.04,1.03,.08,0,.15,0,.22-.03-.05,.23-.12,.47-.21,.69Zm-29.13,4.31s-.07,.09-.1,.14c-.28-.03-.56-.07-.84-.11,.14-.05,.23-.15,.28-.28,.07,.16,.21,.28,.43,.29,.08,0,.15,0,.22-.03Zm27.47-9.03c.27-.33,.49-.68,.66-1.04,.47-.49,1.08-.29,1.58,.07,.33,.23,.91,.89,.71,1.27-.12,.22-.36,.19-.57,.14-.44-.09-.87-.25-1.32-.32-.2-.03-.39-.03-.58,0-.08,0-.15,.01-.22,.04-.55,.14-1,.54-1.08,1.2-.04,.34,.07,.67,.26,.95,.17,.25,.45,.49,.55,.79,.09,.27-.17,.54-.35,.7-.18,.17-.34,.2-.55,.18-.45-.03-.98-.4-1.39-.67,.44,.22,.93,.32,1.47,.18,.64-.16,.42-1.17-.23-1.01-.87,.22-1.58-.68-2.21-1.15-.1-.07-.19-.13-.29-.19,1.09-.28,2.17-.58,3.24-.92,.09-.03,.16-.07,.21-.12,.04-.03,.07-.06,.11-.1Zm-5.6-10.19c.06-.03,.03-.01,0,0h0Zm-28.19,4.4c.66-1.5,1.75-2.76,3.02-3.78,.38-.3,.78-.58,1.2-.84-.33,.33-.52,.78-.24,1.24,.18,.3,.49,.46,.83,.48,.4,.01,.77-.19,1.05-.46,.21-.19,.22-.52,.03-.73-.11-.12-.26-.17-.4-.16,.14-.16,.16-.41,.07-.59-.1-.2-.3-.28-.5-.27,2.32-1.24,4.99-1.87,7.56-2.19,3.26-.4,6.62-.25,9.85,.4-.06,.06-.11,.14-.14,.21-.03,.09-.03,.17-.02,.25-.04-.03-.09-.07-.13-.11-.21-.19-.51-.23-.73-.03-.19,.18-.24,.54-.03,.73,.53,.49,1.36,.85,2.06,.49,.3-.16,.5-.53,.39-.86-.06-.18-.16-.32-.29-.44h.05c1.47,.37,3,.84,4.43,1.51-.06,.02-.13,.06-.18,.11-.14,.12-.19,.32-.15,.5-.02-.01-.04-.03-.06-.04,.01,0-.06-.05-.07-.06-.03-.03-.06-.07-.09-.11-.17-.22-.54-.21-.73-.03-.22,.2-.2,.51-.03,.73,.37,.49,1.08,.79,1.68,.65,.36-.08,.57-.35,.63-.7,.04-.23-.08-.47-.23-.66,1.34,.73,2.55,1.67,3.47,2.89,1.45,1.95,2.3,4.83,.75,6.93-1.61,.5-3.24,.93-4.89,1.3l-.13-.02c-.17-.02-.3,.04-.39,.13-3.64,.77-7.36,1.21-11.09,1.3-2.74,.07-5.48-.06-8.19-.38-1.32-.16-2.63-.37-3.93-.63-1.03-.21-2.11-.39-3.05-.88-.97-.5-1.83-1.39-2.04-2.48-.22-1.13,.22-2.38,.67-3.4Zm-3.12,7.81c-.9-.51,.16-1.57,.69-1.84,.51-.26,1.03-.09,1.51,.14,.56,.27,1.08,.55,1.71,.62h0c.19,.1,.38,.2,.59,.29,.98,.43,2.08,.6,3.12,.8-.51,.59-.91,1.28-1.74,1.45-.65,.14-.42,1.15,.23,1.01,.6-.13,1.11-.4,1.52-.86,.36-.4,.61-.93,1.06-1.24,.06-.04,.1-.09,.14-.14,.92,.16,1.84,.29,2.76,.4,1.88,.22,3.77,.34,5.66,.37,.08,.08,.18,.14,.31,.17,.63,.1,1.11,.76,1.54,1.16,.47,.44,1.01,.79,1.67,.65,.65-.13,.42-1.14-.23-1.01-.44,.09-.95-.6-1.22-.87-.04-.04-.07-.07-.11-.1,.19,0,.39,0,.58,0,1.91-.05,3.82-.19,5.73-.41,.05,.07,.13,.13,.23,.16,1.37,.48,1.52,3.27,3.31,2.93,.65-.12,.42-1.13-.23-1.01-.36,.07-.89-.98-1.07-1.26-.23-.35-.47-.72-.76-1.02,1.46-.21,2.92-.47,4.36-.79,.34,.04,.67,.08,1,.19,.46,.16,.86,.5,1.23,.8,.09,.08,.19,.15,.28,.22-.3-.18-.61-.34-.94-.44-.62-.2-1.23-.08-1.74,.31-.69,.54-.96,1.43-.98,2.27-.01,.51-.14,.79-.6,1.05-.4,.24-.78,.4-1.23,.22-.32-.13-.58-.46-.8-.71-.3-.33-.59-.68-.93-.97-.67-.57-1.49-.93-2.39-.82-.76,.1-1.43,.49-2.09,.86-.55,.31-1.23,.72-1.89,.61-.89-.16-1.41-1.04-2.13-1.51-.83-.54-2.16-.59-2.96,.02-.65,.5-.96,1.28-1.83,1.49-.45,.11-.81-.22-1.14-.55-.43-.43-.83-.91-1.36-1.24-.62-.4-1.36-.46-2.07-.29-.96,.24-1.6,.95-2.35,1.55-.32,.26-.73,.51-1.15,.4-.11-.03-.2-.07-.29-.12,0-.14,.06-.28,.1-.42,.22-.86-.1-1.68-.83-2.19-.65-.45-1.51-.39-2.26-.32-.61,.06-1.47,.31-2.03-.01Zm37.2,14.24c-.68,.7-1.91,1-2.82,1.22-1.15,.27-2.34,.37-3.52,.44-5.72,.33-11.46,.64-17.19,.66-1.83,0-3.65-.08-5.46-.37-.82-.13-1.62-.35-2.44-.48-.58-.09-1.16-.15-1.73-.25-1.03-.19-2.18-.47-2.56-1.57-.31-.91-.26-2.22,.46-2.93,.68,.42,1.5,.65,2.23,.84,2.85,.72,5.93,.81,8.85,.66,.83-.04,1.69-.09,2.51-.28,.1-.02,.17-.06,.23-.12,.2,.07,.4,.13,.6,.2,2.17,.7,4.36,.18,6.48-.42,.02,0,.04,.02,.06,.02,3.9,1.35,8.32,.57,12.17-.57,.73-.22,1.59-.4,2.35-.72,1.4,.51,.51,2.93-.21,3.67Zm-31.79-4.3c1.35,.24,2.79,.29,4.14,.07,.07-.01,.12-.03,.17-.06,1.37,.46,2.72,.96,4.07,1.44-.54,.04-1.08,.06-1.62,.07-1.51,.04-3.03,0-4.53-.14-1.39-.13-2.8-.33-4.13-.78-.49-.17-.94-.37-1.35-.68-.26-.2-.42-.41-.47-.73,0,.01,0-.14,0-.17,0-.12,0-.05,.04-.2,.06-.21,.15-.36,.29-.57,0-.01,.01-.02,.02-.03,.08,0,.16,0,.24,0,.55,1.15,1.94,1.56,3.12,1.77Zm-1.65-1.58c1.04,.19,2.06,.44,3.08,.72-.29-.02-.57-.05-.85-.09-.59-.07-1.58-.21-2.23-.63Zm21.01,2.94c1.67-.44,3.36-.78,5.01-1.3,.05,.01,.1,.02,.15,.02,1.38,.03,2.8-.19,4.14-.52,1.19-.29,2.81-.76,3.48-1.9,.22-.05,.44-.1,.66-.15,.02,.65-.03,1.34-.45,1.72-.3,.27-.76,.43-1.15,.56-.73,.25-1.47,.46-2.21,.68-3.04,.88-6.46,1.51-9.63,.89Zm13.78-4.99s-.04,0-.06,.01c-.12,.03-.23,.05-.34,.08-.7,.17-1.41,.31-2.1,.49-2.79,.74-5.47,1.83-8.24,2.61-1.35,.38-2.72,.62-4.07,.99-1.26,.35-2.51,.76-3.81,.96-1.36,.22-2.63,.03-3.92-.42-1.4-.5-2.8-1.01-4.21-1.5-2.85-.99-5.74-1.86-8.73-2.35-.44-.07-.85-.06-1.3-.06-.37,0-.84,.02-1.18-.16-.48-.26,1.21-.96,1.42-1.05,.42,.26,.87,.48,1.3,.68,1.08,.5,2.21,.86,3.36,1.13,4.88,1.11,9.96,.54,14.91,.48,2.61-.03,5.23-.06,7.83-.26,2.22-.17,4.47-.37,6.51-1.3,.66-.3,1.28-.69,1.82-1.16h0c.5,.17,1.01,.34,1.48,.59-.22,.09-.45,.16-.69,.22Zm-13.29-.91c-.67-.03-.71,1-.04,1.03s.71-1,.04-1.03Zm.8-15.65c.32-.05,.64-.31,.7-.64,.09-.47-.15-.86-.46-1.19-.46-.49-1.22,.21-.76,.7,.04,.04,.07,.07,.1,.11-.08-.02-.17-.06-.26-.11-.18-.11-.31-.27-.42-.48-.31-.59-1.22-.11-.91,.48,.38,.73,1.17,1.28,2.01,1.13Zm-.18-1.03s.02,0,0,0h0Zm4.32,16.82c-.67-.03-.71,1-.04,1.03s.71-1,.04-1.03Zm2.84-.97c-.67-.03-.71,1-.04,1.03s.71-1,.04-1.03Zm4.82-2.4c-.67-.03-.71,1-.04,1.03s.71-1,.04-1.03Z"/></g><g id="b"/></svg>