<svg id="Layer_1" data-name="Layer 1" xmlns="http://www.w3.org/2000/svg" viewBox="0 0 125 50"><defs><style>.cls-1{fill:#4b4a4a;}</style></defs><path class="cls-1" d="M63.43,30.69l0-5.46-2.68,4.5h-.94l-2.67-4.38v5.34h-2v-9.1h1.75l3.4,5.66,3.36-5.66h1.73l0,9.1Z"/><path class="cls-1" d="M74.61,29v1.69h-7v-9.1h6.88v1.69H69.65v2h4.23v1.63H69.65V29Z"/><path class="cls-1" d="M84.63,21.59v9.1H82.9l-4.54-5.52v5.52H76.28v-9.1H78l4.53,5.53V21.59Z"/><path class="cls-1" d="M87.79,29.77a4.17,4.17,0,0,1-1.08-3.08v-5.1h2.1v5c0,1.63.68,2.44,2,2.44a1.89,1.89,0,0,0,1.51-.59,2.73,2.73,0,0,0,.52-1.85v-5H95v5.1a4.31,4.31,0,0,1-7.16,3.08Z"/><path class="cls-1" d="M24.5,24.79l1.54.93.77.47.75.5c1,.66,2,1.35,3,2s1.95,1.39,2.92,2.09l2.9,2.12L37.77,34l1.43,1.08,2.87,2.16C43,38,44,38.7,44.93,39.4l.35.26.16.1.16.09a2.44,2.44,0,0,0,.7.2,1.37,1.37,0,0,0,1.19-.43,1.13,1.13,0,0,0,.24-.57,1.53,1.53,0,0,0-.09-.66,1.92,1.92,0,0,0-.37-.61l-.13-.13L47,37.54l-.15-.11-.18-.11c-1-.62-2.05-1.23-3.07-1.85l-3.07-1.86L39,32.67l-1.52-1c-1-.63-2-1.26-3-1.91l-3-1.94c-1-.66-2-1.32-3-2s-1.94-1.42-2.88-2.14l1.5,1c.25.16.5.34.76.49l.76.46,1.54.92,1.55.91c1,.6,2.06,1.21,3.09,1.8l3.1,1.81,1.56.9,1.55.9,3.1,1.8,1.54.91,1.55.92.2.12.21.15.21.17.19.19a3,3,0,0,1,.56.92,2.38,2.38,0,0,1,.15,1.1,2,2,0,0,1-.44,1.06,2.09,2.09,0,0,1-.2.22l-.23.18a1.78,1.78,0,0,1-.52.25,2.36,2.36,0,0,1-1.08.12,2.93,2.93,0,0,1-1-.29,1.71,1.71,0,0,1-.23-.13l-.22-.14-.37-.27c-.49-.36-1-.73-1.44-1.09L41.52,38l-2.83-2.21-2.82-2.22-5.64-4.43c-.94-.74-1.88-1.48-2.83-2.21l-.71-.54L26,25.84Z"/><path class="cls-1" d="M19.21,15.7c-1.36-.83-2.75-1.61-4.15-2.37s-4.25-2.15-4.25-2.15L10.52,11,10.37,11l-.18-.07H10.1A.12.12,0,0,0,10,11a.17.17,0,0,0,0,.08v0h0l0,.05.07.06.13.11.26.19.52.39.85.61,2.88,2.08c.71.51,1.43,1,2.14,1.5l1.07.74.27.18.14.1.07,0s0,0,0,0h0a.25.25,0,0,1-.28.39h0l-.07,0L18,17.41l-.28-.17-1.11-.69L14.37,15.2c-1.12-.66-2.23-1.31-3.36-1.95l-.6-.36-.56-.33-.28-.16-.15-.07-.08,0,0,0H9.24a.12.12,0,0,0-.09,0,.11.11,0,0,0-.05.09s0,.07,0,.09l0,0,0,0,.06.06.13.11.26.2.51.4.25.19c1.12.88,2.25,1.75,3.38,2.61l2.1,1.56,1.05.77.26.19.14.09.06.05,0,0h0a.26.26,0,0,1,.06.14.33.33,0,0,1-.05.16.26.26,0,0,1-.14.1.17.17,0,0,1-.14,0h0L17,19.11,16.9,19l-.28-.18-1.1-.7L13.3,16.78c-1.49-.9-3-1.8-4.5-2.65h0L8.51,14l-.15-.07-.08,0,0,0H8.18a.12.12,0,0,0-.09,0,.11.11,0,0,0-.05.09.14.14,0,0,0,0,.09s0,0,0,0l0,0,.06.06.13.11.25.2.52.4.84.63c.92.74,1.85,1.46,2.78,2.18.69.53,1.38,1.06,2.08,1.58l1,.78.26.2.13.1.07.05h0l0,0a.22.22,0,0,1,0,.29.28.28,0,0,1-.13.11.19.19,0,0,1-.15,0h0L16,20.73l-.14-.09-.27-.18-1.08-.73L12.28,18.3c-1.43-.93-2.87-1.85-4.33-2.73l-.11-.07-.28-.17-.15-.08-.08,0,0,0a.18.18,0,0,0-.14,0,.19.19,0,0,0,0,.1s0,0,0,0v0h0a.3.3,0,0,0,.07.08l.06.06.12.12.25.21s2.5,2.23,3.48,3.07c.59.5,1.19,1,1.79,1.48l.92.72.92.71.93.69c.32.23.63.45,1,.67l.49.32.49.32.51.3.13.07.17.08a1.53,1.53,0,0,0,.36.07,2,2,0,0,0,.66-.07,3.32,3.32,0,0,0,.58-.22c.37-.16.7-.36,1-.52a2.21,2.21,0,0,1,.5-.19h.18l0,0,.26.12,1.07.46c-.32-.22-.65-.43-1-.64l-.25-.15,0,0,0,0-.1,0a.5.5,0,0,0-.17,0,2,2,0,0,0-.61.14c-.38.13-.73.29-1.08.41a2.22,2.22,0,0,1-1,.17.65.65,0,0,1-.21-.06l-.09,0-.12-.08C15.68,22,7.87,15.77,7.87,15.77l2.64,1.71,1.56,1.12c.71.51,1.43,1,2.14,1.5l1.07.74.27.18.14.1.06,0,.05,0,.06,0a.64.64,0,0,0,.49,0,.74.74,0,0,0,.37-.28.77.77,0,0,0,.13-.46.68.68,0,0,0-.21-.44l-.05,0,0,0-.07,0-.13-.1-.26-.19L15,18.88c-.7-.51-1.4-1-2.12-1.52s-1.21-.85-1.82-1.27l-.84-.63-1-.79L9,14.53l.21.12,1.11.66.92.55,1.83,1.23c.72.49,1.45,1,2.18,1.44l1.09.71.27.17.14.09.07.05,0,0,.05,0a.65.65,0,0,0,.49,0,.74.74,0,0,0,.38-.29.78.78,0,0,0,.12-.45.62.62,0,0,0-.2-.45l0,0,0,0-.07-.05-.13-.09L17.18,18l-1.06-.76L14,15.79l-1.73-1.18-.95-.72-1-.78L10.09,13l.21.11,1.12.66.8.49,1.95,1.29,2.19,1.41,1.1.69.28.18.14.09.07,0,0,0L18,18a.6.6,0,0,0,.49,0,.73.73,0,0,0,.51-.73.67.67,0,0,0-.2-.45l-.05,0,0,0-.07-.05-.14-.09-.27-.18-1.08-.73L15,14.28c-.73-.48-1.47-.95-2.21-1.42l-.54-.39-1-.76-.29-.22S20.25,17,21.83,18.21a2.51,2.51,0,0,0,.23.17l.06,0,0,0a.23.23,0,0,1,.07.07.93.93,0,0,1,.21.42,4,4,0,0,1,.1,1.11v.6a2.77,2.77,0,0,0,.05.63.76.76,0,0,0,.13.33l.07.08.06.06.12.09q.24.2.48.36c.33.24.66.46,1,.67-.29-.27-.58-.54-.86-.82l-.43-.41-.1-.11,0,0,0,0,0,0a.71.71,0,0,1-.05-.23,3.55,3.55,0,0,1,0-.56l.06-.59a4.45,4.45,0,0,0,0-1.26,1.65,1.65,0,0,0-.28-.66.86.86,0,0,0-.13-.14L22.5,18l-.06-.05-.24-.18-.49-.37L21.22,17C20.56,16.55,19.89,16.13,19.21,15.7Z"/><path class="cls-1" d="M29.05,28.42c-2.59,1.93-5.27,3.72-8,5.45-1.36.87-2.73,1.71-4.1,2.55l-1,.64-.23.15-.19.16a2.3,2.3,0,0,0-.32.38,1.72,1.72,0,0,0-.3.87.4.4,0,0,0,0,.11v.11A.65.65,0,0,0,15,39a.94.94,0,0,0,.2.35,1.2,1.2,0,0,0,.34.25,1.21,1.21,0,0,0,.42.13,1.48,1.48,0,0,0,.47,0,1.86,1.86,0,0,0,.46-.13l.11-.05.11-.06a2.26,2.26,0,0,0,.2-.13l.48-.37.95-.74c1.28-1,2.55-2,3.84-2.92,2.57-1.94,5.17-3.85,7.82-5.68C28,31.83,25.5,33.9,23,36c-1.24,1-2.49,2-3.75,3l-.94.76-.47.38a3.13,3.13,0,0,1-.3.2l-.16.09-.16.07a2.75,2.75,0,0,1-.69.21,3,3,0,0,1-.74,0,2.43,2.43,0,0,1-.73-.21,2.36,2.36,0,0,1-.62-.47A2,2,0,0,1,14,38.59a2.66,2.66,0,0,1,.48-1.38,2.63,2.63,0,0,1,.47-.53,2.88,2.88,0,0,1,.27-.22l.28-.19,1-.63,2.09-1.21,2.09-1.2Z"/><path class="cls-1" d="M33,27.63c1.66-1.41,3.39-2.73,5.13-4l1.32-1,1.32-.95c.88-.64,1.78-1.26,2.67-1.88,1.77-1.26,3.58-2.47,5.35-3.72.88-.63,1.77-1.24,2.62-1.9l.31-.24.31-.26a3.61,3.61,0,0,0,.3-.25l.28-.26.14-.12.06-.08s0,0,0,0a.29.29,0,0,0,0,.19.39.39,0,0,0,.15.19h0l-.36-.06-.19,0-.19,0a8.92,8.92,0,0,0-1.55,0c-.26,0-.52,0-.77.1l-.39.06-.39.08a20.4,20.4,0,0,0-3,.94,39.71,39.71,0,0,0-5.74,2.92c-.92.56-1.83,1.15-2.73,1.75l-1.35.91-.34.23-.34.22-.67.46a10.92,10.92,0,0,0-1.27,1,2.19,2.19,0,0,0-.49.57l0,.07,0,.09c0,.06,0,.12-.05.19s0,.25-.06.39c-.07.53-.08,1.07-.15,1.62a4.41,4.41,0,0,1-.18.8,1.19,1.19,0,0,1-.48.66,1.16,1.16,0,0,0,.4-.68,3.59,3.59,0,0,0,.11-.8c0-.53,0-1.07,0-1.63,0-.14,0-.27,0-.42a1.55,1.55,0,0,1,0-.21.38.38,0,0,1,0-.1l0-.12a.31.31,0,0,1,.05-.1l.06-.1.13-.18c.09-.11.18-.22.28-.32a12.83,12.83,0,0,1,1.25-1.09l.66-.49.32-.24.33-.24,1.31-1C38.14,18,39,17.36,40,16.77l1.39-.88c.47-.28.95-.55,1.43-.81a29.2,29.2,0,0,1,3-1.44l.77-.31.39-.14.4-.13L47.5,13l.2-.06.41-.11.4-.11.41-.1a11.55,11.55,0,0,1,3.38-.28l.21,0,.22,0,.21,0,.11,0h.12l.1,0,.06,0,.07,0a.7.7,0,0,1,.28.34.57.57,0,0,1,0,.39.83.83,0,0,1-.09.21,1.18,1.18,0,0,1-.19.24l-.16.15-.32.29a4.15,4.15,0,0,1-.32.27l-.33.27-.33.25-.66.49-.67.47-1.35.93c-.9.61-1.81,1.21-2.72,1.81l-1.36.89-1.37.89C40.17,22.79,36.53,25.15,33,27.63Z"/></svg>