<?xml version="1.0" encoding="UTF-8"?><svg xmlns="http://www.w3.org/2000/svg" viewBox="0 0 125 50"><defs><style>.c{fill:#fff;}.d{fill:#4b4a4a;}</style></defs><g id="a"><g><path class="d" d="M57.98,21.46h4.13c.99,0,1.86,.19,2.62,.57,.76,.38,1.35,.91,1.77,1.59,.42,.68,.63,1.48,.63,2.39s-.21,1.71-.63,2.39c-.42,.68-1.01,1.22-1.77,1.59-.76,.38-1.63,.57-2.62,.57h-4.13v-9.1Zm4.03,7.37c.91,0,1.64-.25,2.18-.76,.54-.51,.81-1.19,.81-2.06s-.27-1.55-.81-2.06c-.54-.51-1.27-.76-2.18-.76h-1.92v5.64h1.92Z"/><path class="d" d="M68.72,21.46h2.11v9.1h-2.11v-9.1Z"/><path class="d" d="M81.33,21.46v9.1h-1.73l-4.54-5.53v5.53h-2.08v-9.1h1.74l4.52,5.52v-5.52h2.08Z"/><path class="d" d="M91.83,21.46v9.1h-1.73l-4.54-5.53v5.53h-2.08v-9.1h1.74l4.52,5.52v-5.52h2.08Z"/><path class="d" d="M101.03,28.87v1.69h-7.05v-9.1h6.88v1.69h-4.78v1.98h4.23v1.64h-4.23v2.11h4.95Z"/><path class="d" d="M108.51,30.56l-1.75-2.54h-1.94v2.54h-2.11v-9.1h3.94c.81,0,1.51,.13,2.1,.4,.59,.27,1.05,.65,1.37,1.14,.32,.49,.48,1.08,.48,1.76s-.16,1.26-.49,1.75c-.32,.49-.79,.87-1.38,1.12l2.04,2.92h-2.26Zm-.53-6.97c-.33-.27-.81-.41-1.44-.41h-1.72v3.17h1.72c.63,0,1.11-.14,1.44-.42,.33-.28,.49-.67,.49-1.17s-.16-.9-.49-1.18Z"/></g></g><g id="b"><g><g><path class="d" d="M27.52,23.17c-.36,0-.65-.29-.65-.65,0-1.66,.61-2.52,1.15-3.28,.49-.69,.91-1.29,.91-2.54s-.42-1.85-.91-2.54c-.54-.76-1.15-1.62-1.15-3.28s.61-2.52,1.15-3.28c.21-.29,.61-.36,.9-.15,.29,.21,.36,.61,.15,.9-.49,.69-.91,1.29-.91,2.54s.42,1.85,.91,2.54c.54,.76,1.15,1.62,1.15,3.28s-.61,2.52-1.15,3.28c-.49,.69-.91,1.29-.91,2.54,0,.36-.29,.65-.65,.65Z"/><path class="d" d="M32.27,23.83c-.36,0-.65-.29-.65-.65,0-1.93,.71-2.94,1.34-3.83,.59-.84,1.1-1.56,1.1-3.08s-.51-2.24-1.1-3.08c-.63-.89-1.34-1.9-1.34-3.83s.71-2.94,1.34-3.83c.21-.29,.61-.36,.9-.15,.29,.21,.36,.61,.15,.9-.59,.84-1.1,1.56-1.1,3.08s.51,2.24,1.1,3.08c.63,.89,1.34,1.9,1.34,3.83s-.71,2.94-1.34,3.83c-.59,.84-1.11,1.56-1.11,3.08,0,.36-.29,.65-.65,.65Z"/><path class="d" d="M37.03,24.5c-.36,0-.65-.29-.65-.65,0-2.21,.82-3.36,1.54-4.37,.7-.98,1.3-1.83,1.3-3.62s-.6-2.64-1.3-3.62c-.72-1.02-1.54-2.17-1.54-4.37s.82-3.36,1.53-4.37c.21-.29,.61-.36,.9-.15,.29,.21,.36,.61,.15,.9-.7,.98-1.3,1.83-1.3,3.62s.6,2.64,1.3,3.62c.72,1.02,1.54,2.17,1.54,4.37s-.82,3.36-1.53,4.37c-.7,.98-1.3,1.83-1.3,3.63,0,.36-.29,.65-.65,.65Z"/></g><g><g><path class="c" d="M31.08,42.36c-9.57-.29-17.86-3.44-18.53-7.03-.67-3.6,5.95-9.51,14.78-13.2,8.83-3.69,17.12-.54,18.53,7.03,1.4,7.58-5.21,13.49-14.78,13.2Z"/><path class="c" d="M31.75,44.31c-.24,0-.48,0-.72-.01h0c-9.39-.28-19.4-3.33-20.38-8.62-.98-5.29,7.28-11.72,15.94-15.34,5.41-2.26,10.9-2.26,15.08,0,3.25,1.76,5.42,4.77,6.11,8.48,.69,3.71-.26,7.3-2.67,10.1-2.96,3.45-7.8,5.4-13.36,5.4Zm-.61-3.89c4.69,.15,8.7-1.33,11.02-4.04,1.65-1.93,2.27-4.3,1.8-6.87-.48-2.57-1.91-4.56-4.14-5.77-3.14-1.7-7.42-1.63-11.73,.17-8.88,3.71-14,9.03-13.62,11.06,.38,2.03,7.06,5.16,16.68,5.45h0Z"/></g><g><path class="c" d="M31.08,42.36c-9.57-.29-17.86-3.44-18.53-7.03-.67-3.6,5.95-9.51,14.78-13.2,8.83-3.69,17.12-.54,18.53,7.03,1.4,7.58-5.21,13.49-14.78,13.2Z"/><path class="c" d="M31.75,44.31c-.24,0-.48,0-.72-.01h0c-9.39-.28-19.4-3.33-20.38-8.62-.98-5.29,7.28-11.72,15.94-15.34,5.41-2.26,10.9-2.26,15.08,0,3.25,1.76,5.42,4.77,6.11,8.48,.69,3.71-.26,7.3-2.67,10.1-2.96,3.45-7.8,5.4-13.36,5.4Zm-.61-3.89c4.69,.15,8.7-1.33,11.02-4.04,1.65-1.93,2.27-4.3,1.8-6.87-.48-2.57-1.91-4.56-4.14-5.77-3.14-1.7-7.42-1.63-11.73,.17-8.88,3.71-14,9.03-13.62,11.06,.38,2.03,7.06,5.16,16.68,5.45h0Z"/></g></g><g><path class="d" d="M31.75,43.02c-.23,0-.45,0-.68-.01h0c-10.01-.3-18.41-3.62-19.14-7.56-.73-3.94,5.93-10.05,15.17-13.92,5.04-2.11,10.13-2.13,13.96-.06,2.9,1.57,4.84,4.26,5.45,7.58,.61,3.32-.23,6.52-2.38,9.03-2.71,3.17-7.2,4.95-12.38,4.95Zm-.65-1.3c5.07,.16,9.46-1.48,12.04-4.49,1.91-2.23,2.64-4.98,2.09-7.95-.55-2.97-2.21-5.27-4.79-6.67-3.48-1.88-8.17-1.84-12.85,.12-9.27,3.88-14.93,9.59-14.39,12.49,.54,2.9,7.86,6.2,17.91,6.51h0Z"/><path class="d" d="M31.75,43.02c-.23,0-.45,0-.68-.01h0c-10.01-.3-18.41-3.62-19.14-7.56-.73-3.94,5.93-10.05,15.17-13.92,5.04-2.11,10.13-2.13,13.96-.06,2.9,1.57,4.84,4.26,5.45,7.58,.61,3.32-.23,6.52-2.38,9.03-2.71,3.17-7.2,4.95-12.38,4.95Zm-.65-1.3c5.07,.16,9.46-1.48,12.04-4.49,1.91-2.23,2.64-4.98,2.09-7.95-.55-2.97-2.21-5.27-4.79-6.67-3.48-1.88-8.17-1.84-12.85,.12-9.27,3.88-14.93,9.59-14.39,12.49,.54,2.9,7.86,6.2,17.91,6.51h0Z"/></g><path class="c" d="M47.08,44.29H9.42c-1.07,0-1.94-.87-1.94-1.94s.87-1.94,1.94-1.94H47.08c1.07,0,1.94,.87,1.94,1.94s-.87,1.94-1.94,1.94Z"/><path class="d" d="M48.41,42.99H8.09c-.36,0-.65-.29-.65-.65s.29-.65,.65-.65H48.41c.36,0,.65,.29,.65,.65s-.29,.65-.65,.65Z"/><path class="d" d="M42.1,46.32H14.4c-.36,0-.65-.29-.65-.65s.29-.65,.65-.65h27.69c.36,0,.65,.29,.65,.65s-.29,.65-.65,.65Z"/><g><path class="c" d="M30.94,25.35c-1.36-1.64-3.19-2.62-5.06-2.9-1.64-.24-3.18-.97-4.24-2.25l-.59-.71c-.55-.66-1.54-.75-2.2-.2l-2.71,2.25c-.66,.55-.75,1.54-.2,2.2l.59,.71c1.06,1.28,1.49,2.92,1.43,4.58-.07,1.89,.56,3.87,1.92,5.51,2.76,3.33,7.48,3.97,10.53,1.43"/><path class="c" d="M26.05,39.46c-.42,0-.85-.03-1.28-.09-2.47-.34-4.74-1.61-6.39-3.6-1.62-1.95-2.46-4.37-2.36-6.82,.03-.91-.11-2.21-.98-3.27l-.59-.71c-1.23-1.49-1.03-3.7,.46-4.93l2.71-2.25c.72-.6,1.63-.88,2.56-.79,.93,.09,1.77,.53,2.37,1.25l.59,.71c.88,1.06,2.13,1.44,3.03,1.57,2.43,.36,4.65,1.63,6.27,3.57,.68,.82,.57,2.05-.25,2.73-.82,.68-2.05,.57-2.73-.25-1-1.21-2.37-2-3.85-2.21-2.25-.33-4.13-1.34-5.45-2.93l-.35-.42-2.13,1.77,.35,.42c1.3,1.56,1.96,3.65,1.88,5.89-.06,1.49,.47,2.98,1.47,4.19,1.02,1.23,2.42,2.03,3.92,2.23,1.45,.2,2.82-.18,3.88-1.05,.82-.69,2.05-.57,2.73,.25,.68,.82,.57,2.05-.25,2.73-1.58,1.31-3.53,2-5.6,2Z"/></g><path class="d" d="M17.71,23.76c-.19,0-.37-.08-.5-.23l-4.12-4.96c-.12-.14-.3-.2-.48-.14-1.19,.39-2.49-.2-3.01-1.37-.34-.77-.26-1.68,.23-2.37,.46-.66,1.18-1.04,1.95-1.07,.17-.76,.68-1.39,1.41-1.72,.77-.35,1.68-.27,2.37,.21,1.05,.73,1.39,2.11,.79,3.22-.08,.16-.06,.35,.06,.49l4.12,4.96c.23,.27,.19,.68-.08,.91-.27,.23-.68,.19-.91-.08l-4.12-4.96c-.45-.55-.53-1.3-.2-1.93,.25-.46,.2-1.14-.39-1.54-.31-.22-.74-.26-1.1-.1-.41,.18-.66,.54-.71,.96-.05,.53-.53,.93-1.06,.88-.43-.03-.82,.15-1.07,.52-.22,.31-.26,.74-.11,1.09,.29,.65,.94,.83,1.44,.67,.68-.21,1.41,0,1.86,.55l4.12,4.96c.23,.27,.19,.68-.08,.91-.12,.1-.27,.15-.41,.15Zm-5.64-10.14h0Z"/><path class="c" d="M15.5,24.01c-.56,0-1.11-.24-1.49-.7-.68-.82-.57-2.05,.25-2.73l3.99-3.32c.82-.69,2.05-.57,2.73,.25,.68,.82,.57,2.05-.25,2.73l-3.99,3.32c-.36,.3-.8,.45-1.24,.45Z"/><path class="c" d="M30.94,25.35c-1.36-1.64-3.19-2.62-5.06-2.9-1.64-.24-3.18-.97-4.24-2.25l-.59-.71c-.55-.66-1.54-.75-2.2-.2l-2.71,2.25c-.66,.55-.75,1.54-.2,2.2l.59,.71c1.06,1.28,1.49,2.92,1.43,4.58-.07,1.89,.56,3.87,1.92,5.51,2.76,3.33,7.48,3.97,10.53,1.43"/><path class="d" d="M26.04,38.17c-.36,0-.73-.02-1.1-.07-2.15-.29-4.13-1.41-5.57-3.14-1.41-1.7-2.15-3.81-2.06-5.94,.04-1.13-.14-2.77-1.28-4.14l-.59-.71c-.38-.45-.55-1.03-.5-1.61s.33-1.12,.79-1.49l2.71-2.25c.45-.38,1.03-.55,1.61-.5,.59,.05,1.12,.33,1.49,.79l.59,.71c1.14,1.37,2.71,1.86,3.84,2.02,2.11,.31,4.05,1.42,5.46,3.12,.23,.27,.19,.68-.08,.91-.28,.23-.68,.19-.91-.08-1.21-1.46-2.86-2.4-4.66-2.67-1.93-.29-3.53-1.14-4.64-2.48l-.59-.71c-.16-.19-.38-.3-.62-.33-.24-.03-.48,.05-.67,.21l-2.71,2.25c-.19,.16-.3,.38-.33,.62-.02,.24,.05,.48,.21,.67l.59,.71c1.11,1.33,1.65,3.07,1.58,5.02-.07,1.81,.56,3.61,1.77,5.07,1.23,1.48,2.92,2.44,4.75,2.68,1.81,.25,3.54-.23,4.88-1.34,.27-.23,.68-.19,.91,.08,.23,.27,.19,.68-.08,.91-1.34,1.11-3.01,1.7-4.77,1.7Z"/></g></g></svg>